<svg width="72" height="60" viewBox="0 0 72 60" fill="none" xmlns="http://www.w3.org/2000/svg">
<g filter="url(#filter0_d_68_243)">
<rect x="5" y="0.5" width="65.8246" height="59" rx="7.5" stroke="black"/>
<path d="M37.8566 34.9775C40.9444 34.9775 43.4476 32.73 43.4476 29.9575C43.4476 27.185 40.9444 24.9375 37.8566 24.9375C34.7688 24.9375 32.2656 27.185 32.2656 29.9575C32.2656 32.73 34.7688 34.9775 37.8566 34.9775Z" fill="#00D8FF"/>
<path d="M37.8568 41.4625C30.0049 41.4625 23.1442 40.6325 18.0098 39.0525C14.6797 38.0325 11.8508 36.6725 9.83495 35.1225C7.69657 33.4825 6.56055 31.6925 6.56055 29.9625C6.56055 26.6425 10.6146 23.3925 17.4196 21.2725C22.9883 19.5325 30.2499 18.5625 37.8456 18.5625C45.3077 18.5625 52.4691 19.5025 58.0044 21.2225C61.2454 22.2225 63.9741 23.5225 65.912 24.9625C68.017 26.5425 69.1307 28.2725 69.1307 29.9625C69.1307 33.4125 64.5978 36.9025 57.2916 39.0725C52.1238 40.6125 45.2186 41.4625 37.8568 41.4625ZM37.8568 20.9625C30.6508 20.9625 23.5229 21.9025 18.3105 23.5325C12.0513 25.4925 9.24467 28.1725 9.24467 29.9625C9.24467 31.8225 12.2629 34.7525 18.8786 36.7825C23.7345 38.2725 30.3056 39.0625 37.8568 39.0625C44.9402 39.0625 51.5447 38.2625 56.4563 36.7925C63.3281 34.7425 66.4688 31.8125 66.4688 29.9625C66.4688 29.0125 65.6669 27.8925 64.2079 26.8025C62.5262 25.5425 60.076 24.3925 57.1468 23.4825C51.8788 21.8625 45.0293 20.9625 37.8568 20.9625Z" fill="#00D8FF"/>
<path d="M25.1712 54.9822C24.0351 54.9822 23.0328 54.7622 22.1863 54.3222C18.9899 52.6622 17.8761 47.8822 19.2238 41.5322C20.3264 36.3222 23.0216 30.2022 26.8195 24.2922C30.5505 18.4922 35.0278 13.3922 39.4494 9.94219C42.0332 7.92219 44.6505 6.44219 47.0117 5.66219C49.5844 4.81219 51.8119 4.81219 53.438 5.65219C56.7681 7.37219 57.8707 12.6522 56.3114 19.4122C55.2088 24.2122 52.5804 30.0022 48.905 35.7322C44.9847 41.8322 40.7524 46.7522 36.665 49.9622C34.0143 52.0422 31.2856 53.5622 28.7908 54.3522C27.4877 54.7722 26.2626 54.9822 25.1712 54.9822ZM27.9667 24.8922L29.1249 25.4922C25.5276 31.0922 22.8657 37.1022 21.8411 41.9822C20.6048 47.8322 21.7965 51.3522 23.5117 52.2422C23.9349 52.4622 24.4918 52.5822 25.1712 52.5822C27.3875 52.5822 30.8735 51.3222 34.9053 48.1622C38.77 45.1322 42.8129 40.4122 46.5885 34.5422C50.1302 29.0322 52.6472 23.4922 53.6941 18.9422C55.1531 12.5722 53.8946 8.67219 52.1015 7.74219C51.1882 7.27219 49.7069 7.33219 47.9249 7.92219C45.8645 8.60219 43.5368 9.93219 41.1979 11.7622C36.9991 15.0422 32.7112 19.9222 29.1249 25.5022L27.9667 24.8922Z" fill="#00D8FF"/>
<path d="M50.5423 55.0107C47.5129 55.0107 43.6705 53.3707 39.661 50.2707C35.1837 46.8107 30.6285 41.6607 26.8195 35.7507C23.0773 29.9507 20.4044 23.9207 19.2795 18.7507C18.6224 15.7307 18.4999 12.9607 18.9231 10.7307C19.3909 8.3007 20.4935 6.5707 22.1307 5.7207C25.4496 3.9907 31.0963 5.7707 36.8432 10.3607C40.9195 13.6107 45.1963 18.5507 48.8828 24.2707C52.8143 30.3707 55.4539 36.1207 56.5008 40.9007C57.1802 44.0007 57.2916 46.8807 56.8127 49.2207C56.3003 51.7107 55.142 53.4807 53.4714 54.3507C52.6361 54.7907 51.6449 55.0107 50.5423 55.0107ZM29.1361 34.5507C32.7446 40.1507 37.2219 45.2207 41.4096 48.4507C46.4326 52.3307 50.4198 53.1707 52.1461 52.2707C53.9392 51.3407 55.2534 47.5307 53.8946 41.3707C52.8923 36.8507 50.3641 31.3507 46.5773 25.4807C43.0245 19.9707 38.9371 15.2407 35.0724 12.1607C29.6596 7.8407 25.2714 6.8707 23.4783 7.8007C22.565 8.2707 21.8856 9.4607 21.5627 11.1407C21.1951 13.0807 21.3065 15.5607 21.9079 18.2907C22.9771 23.2007 25.5387 28.9707 29.1361 34.5507Z" fill="#00D8FF"/>
</g>
<defs>
<filter id="filter0_d_68_243" x="0.5" y="0" width="74.8247" height="68" filterUnits="userSpaceOnUse" color-interpolation-filters="sRGB">
<feFlood flood-opacity="0" result="BackgroundImageFix"/>
<feColorMatrix in="SourceAlpha" type="matrix" values="0 0 0 0 0 0 0 0 0 0 0 0 0 0 0 0 0 0 127 0" result="hardAlpha"/>
<feOffset dy="4"/>
<feGaussianBlur stdDeviation="2"/>
<feComposite in2="hardAlpha" operator="out"/>
<feColorMatrix type="matrix" values="0 0 0 0 0 0 0 0 0 0 0 0 0 0 0 0 0 0 0.25 0"/>
<feBlend mode="normal" in2="BackgroundImageFix" result="effect1_dropShadow_68_243"/>
<feBlend mode="normal" in="SourceGraphic" in2="effect1_dropShadow_68_243" result="shape"/>
</filter>
</defs>
</svg>
