<svg width="76" height="60" viewBox="0 0 76 60" fill="none" xmlns="http://www.w3.org/2000/svg">
<g filter="url(#filter0_d_68_239)">
<rect x="5" y="0.5" width="66" height="59" rx="7.5" stroke="black" shape-rendering="crispEdges"/>
<path d="M68.5372 22.0312H16.3662V56.5641H68.5372V22.0312Z" fill="white"/>
<path d="M5.28516 29.9609V59.2578H70.7148V0.664062H5.28516V29.9609ZM58.011 27.6172C59.5781 27.9429 61.0024 28.6768 62.1043 29.7266C62.7109 30.2921 63.2382 30.9217 63.6746 31.6016C63.6746 31.6766 60.848 33.3875 59.1259 34.3438C59.0631 34.3812 58.8119 34.1375 58.5345 33.7672C58.2201 33.2814 57.7734 32.8749 57.2361 32.5855C56.6988 32.2962 56.0884 32.1334 55.4619 32.1125C53.478 31.9906 52.2009 32.9234 52.2113 34.4562C52.1949 34.8379 52.2925 35.2165 52.494 35.5531C52.9284 36.3641 53.7398 36.8469 56.2837 37.8312C60.9684 39.6359 62.9732 40.8266 64.219 42.5187C65.6113 44.3937 65.9202 47.4219 64.978 49.6625C63.9311 52.1 61.3662 53.7547 57.7388 54.3031C56.0821 54.4731 54.4081 54.4573 52.7557 54.2562C50.2231 53.8824 47.8903 52.7935 46.0976 51.1484C45.4956 50.5531 44.3231 49.0016 44.3964 48.8891C44.5875 48.762 44.7887 48.6477 44.9984 48.5469L47.4219 47.3469L49.301 46.3719L49.6936 46.8922C50.3561 47.7409 51.1993 48.4641 52.1747 49.0203C54.2684 50.0047 57.1264 49.8687 58.5397 48.7297C59.0142 48.3123 59.3102 47.7591 59.3762 47.1664C59.4422 46.5737 59.274 45.979 58.9009 45.4859C58.3774 44.8344 57.3305 44.2859 54.4045 43.1422C51.0284 41.8391 49.5732 41.0328 48.2437 39.7484C47.4137 38.9009 46.8009 37.9009 46.4483 36.8187C46.1853 35.5824 46.1464 34.3162 46.3331 33.0687C47.0293 30.1484 49.4737 28.1094 53.0436 27.5047C54.6968 27.3215 56.3715 27.3626 58.011 27.6266V27.6172ZM42.6534 30.0734V32.4734H34.158V54.1437H28.1332V32.4688H19.6169V30.125C19.5903 29.3168 19.6113 28.5078 19.6797 27.7016C19.7216 27.6594 24.9141 27.6594 31.1953 27.6594H42.622L42.6534 30.0734Z" fill="#007ACC"/>
</g>
<defs>
<filter id="filter0_d_68_239" x="0.5" y="0" width="75" height="68" filterUnits="userSpaceOnUse" color-interpolation-filters="sRGB">
<feFlood flood-opacity="0" result="BackgroundImageFix"/>
<feColorMatrix in="SourceAlpha" type="matrix" values="0 0 0 0 0 0 0 0 0 0 0 0 0 0 0 0 0 0 127 0" result="hardAlpha"/>
<feOffset dy="4"/>
<feGaussianBlur stdDeviation="2"/>
<feComposite in2="hardAlpha" operator="out"/>
<feColorMatrix type="matrix" values="0 0 0 0 0 0 0 0 0 0 0 0 0 0 0 0 0 0 0.25 0"/>
<feBlend mode="normal" in2="BackgroundImageFix" result="effect1_dropShadow_68_239"/>
<feBlend mode="normal" in="SourceGraphic" in2="effect1_dropShadow_68_239" result="shape"/>
</filter>
</defs>
</svg>
