<svg width="46" height="46" viewBox="0 0 46 46" fill="none" xmlns="http://www.w3.org/2000/svg">
<path d="M43 0.5H3C2.33696 0.5 1.70107 0.763392 1.23223 1.23223C0.763392 1.70107 0.5 2.33696 0.5 3V43C0.5 43.663 0.763392 44.2989 1.23223 44.7678C1.70107 45.2366 2.33696 45.5 3 45.5H43C43.663 45.5 44.2989 45.2366 44.7678 44.7678C45.2366 44.2989 45.5 43.663 45.5 43V3C45.5 2.33696 45.2366 1.70107 44.7678 1.23223C44.2989 0.763392 43.663 0.5 43 0.5ZM13.8475 38.8425H7.1675V17.3675H13.8475V38.8425ZM10.5075 14.435C9.48111 14.435 8.49676 14.0273 7.771 13.3015C7.04523 12.5757 6.6375 11.5914 6.6375 10.565C6.6375 9.53861 7.04523 8.55426 7.771 7.8285C8.49676 7.10273 9.48111 6.695 10.5075 6.695C11.5339 6.695 12.5182 7.10273 13.244 7.8285C13.9698 8.55426 14.3775 9.53861 14.3775 10.565C14.3775 11.5914 13.9698 12.5757 13.244 13.3015C12.5182 14.0273 11.5339 14.435 10.5075 14.435ZM38.845 38.8425H32.1725V28.4C32.1725 25.91 32.1275 22.7075 28.7025 22.7075C25.2275 22.7075 24.7 25.4225 24.7 28.225V38.845H18.0325V17.37H24.4325V20.305H24.525C25.4125 18.6175 27.5925 16.8375 30.835 16.8375C37.595 16.8375 38.8425 21.2825 38.8425 27.0675L38.845 38.8425Z" fill="#0072B1"/>
</svg>
