<svg width="24" height="24" viewBox="0 0 24 24" fill="none" xmlns="http://www.w3.org/2000/svg">
<path d="M17.6567 14.8287L16.2425 13.4145L17.6567 12.0003C19.2188 10.4382 19.2188 7.90555 17.6567 6.34345C16.0946 4.78136 13.5619 4.78136 11.9998 6.34345L10.5856 7.75767L9.17139 6.34345L10.5856 4.92924C12.9287 2.58609 16.7277 2.58609 19.0709 4.92924C21.414 7.27239 21.414 11.0714 19.0709 13.4145L17.6567 14.8287ZM14.8282 17.6572L13.414 19.0714C11.0709 21.4145 7.27189 21.4145 4.92875 19.0714C2.5856 16.7282 2.5856 12.9292 4.92875 10.5861L6.34296 9.17188L7.75717 10.5861L6.34296 12.0003C4.78086 13.5624 4.78086 16.0951 6.34296 17.6572C7.90506 19.2192 10.4377 19.2192 11.9998 17.6572L13.414 16.2429L14.8282 17.6572ZM14.8282 7.75767L16.2425 9.17188L9.17139 16.2429L7.75717 14.8287L14.8282 7.75767Z" fill="#F6F2F2"/>
</svg>
